<svg width="121" height="12" viewBox="0 0 121 12" fill="none" xmlns="http://www.w3.org/2000/svg">
<path d="M121 5.77344L111 -6.53267e-05V11.5469L121 5.77344ZM0 5.77344V6.77344H2.01667V5.77344V4.77344H0V5.77344ZM6.05 5.77344V6.77344H10.0833V5.77344V4.77344H6.05V5.77344ZM14.1167 5.77344V6.77344H18.15V5.77344V4.77344H14.1167V5.77344ZM22.1833 5.77344V6.77344H26.2167V5.77344V4.77344H22.1833V5.77344ZM30.25 5.77344V6.77344H34.2833V5.77344V4.77344H30.25V5.77344ZM38.3167 5.77344V6.77344H42.35V5.77344V4.77344H38.3167V5.77344ZM46.3833 5.77344V6.77344H50.4167V5.77344V4.77344H46.3833V5.77344ZM54.45 5.77344V6.77344H58.4833V5.77344V4.77344H54.45V5.77344ZM62.5167 5.77344V6.77344H66.55V5.77344V4.77344H62.5167V5.77344ZM70.5833 5.77344V6.77344H74.6167V5.77344V4.77344H70.5833V5.77344ZM78.65 5.77344V6.77344H82.6833V5.77344V4.77344H78.65V5.77344ZM86.7167 5.77344V6.77344H90.75V5.77344V4.77344H86.7167V5.77344ZM94.7833 5.77344V6.77344H98.8167V5.77344V4.77344H94.7833V5.77344ZM102.85 5.77344V6.77344H106.883V5.77344V4.77344H102.85V5.77344ZM110.917 5.77344V6.77344H114.95V5.77344V4.77344H110.917V5.77344ZM121 5.77344L111 -6.53267e-05V11.5469L121 5.77344ZM0 5.77344V6.77344H2.01667V5.77344V4.77344H0V5.77344ZM6.05 5.77344V6.77344H10.0833V5.77344V4.77344H6.05V5.77344ZM14.1167 5.77344V6.77344H18.15V5.77344V4.77344H14.1167V5.77344ZM22.1833 5.77344V6.77344H26.2167V5.77344V4.77344H22.1833V5.77344ZM30.25 5.77344V6.77344H34.2833V5.77344V4.77344H30.25V5.77344ZM38.3167 5.77344V6.77344H42.35V5.77344V4.77344H38.3167V5.77344ZM46.3833 5.77344V6.77344H50.4167V5.77344V4.77344H46.3833V5.77344ZM54.45 5.77344V6.77344H58.4833V5.77344V4.77344H54.45V5.77344ZM62.5167 5.77344V6.77344H66.55V5.77344V4.77344H62.5167V5.77344ZM70.5833 5.77344V6.77344H74.6167V5.77344V4.77344H70.5833V5.77344ZM78.65 5.77344V6.77344H82.6833V5.77344V4.77344H78.65V5.77344ZM86.7167 5.77344V6.77344H90.75V5.77344V4.77344H86.7167V5.77344ZM94.7833 5.77344V6.77344H98.8167V5.77344V4.77344H94.7833V5.77344ZM102.85 5.77344V6.77344H106.883V5.77344V4.77344H102.85V5.77344ZM110.917 5.77344V6.77344H114.95V5.77344V4.77344H110.917V5.77344Z" fill="black"/>
</svg>
