<svg width="226" height="226" viewBox="0 0 226 226" fill="none" xmlns="http://www.w3.org/2000/svg">
<g opacity="0.1">
<path d="M209.806 136.257L188.618 115.069C187.294 113.745 185.498 113.002 183.625 113.002C181.752 113.002 179.956 113.745 178.632 115.069L113 180.701V211.875H144.174L209.806 146.243C211.13 144.919 211.873 143.123 211.873 141.25C211.873 139.377 211.13 137.581 209.806 136.257ZM138.326 197.75H127.125V186.549L162.438 151.236L173.639 162.438L138.326 197.75ZM183.625 152.451L172.424 141.25L183.625 130.049L194.826 141.25L183.625 152.451ZM56.5 113H127.125V127.125H56.5V113ZM56.5 70.625H141.25V84.75H56.5V70.625Z" fill="black"/>
<path d="M183.625 28.25C183.625 24.5038 182.137 20.9111 179.488 18.2621C176.839 15.6132 173.246 14.125 169.5 14.125H28.2501C24.5039 14.125 20.9111 15.6132 18.2622 18.2621C15.6132 20.9111 14.1251 24.5038 14.1251 28.25V120.062C14.1085 134.148 17.9287 147.971 25.1753 160.05C32.4219 172.128 42.8213 182.004 55.2571 188.618L91.8126 208.111V192.1L61.9099 176.153C51.7373 170.738 43.2302 162.657 37.3005 152.776C31.3708 142.895 28.2422 131.586 28.2501 120.062V28.25H169.5V91.8125H183.625V28.25Z" fill="black"/>
</g>
</svg>
