<svg width="96" height="96" viewBox="0 0 96 96" fill="none" xmlns="http://www.w3.org/2000/svg">
<path d="M76 35.9999C76.0018 31.1796 74.7591 26.4403 72.3922 22.2411C70.0252 18.0418 66.6143 14.5247 62.4895 12.0302C58.3648 9.53574 53.6659 8.14839 48.8477 8.00246C44.0295 7.85653 39.2552 8.95696 34.9871 11.1972C30.7189 13.4375 27.1013 16.7417 24.4846 20.7901C21.8679 24.8384 20.3407 29.4937 20.0507 34.3054C19.7608 39.117 20.7179 43.9221 22.8295 48.2553C24.9412 52.5886 28.1357 56.3033 32.104 59.0399L20 79.9999L29.024 80.3719L33.856 87.9999L47.72 63.9839L48 63.9999C48.14 64.0079 48.184 63.9879 48.28 63.9839L62.144 87.9999L67.072 80.5359L76 79.9999L63.896 59.0399C67.6304 56.4687 70.6836 53.0279 72.7922 49.0141C74.9008 45.0003 76.0017 40.5339 76 35.9999ZM28 35.9999C28 32.0443 29.173 28.1775 31.3706 24.8885C33.5682 21.5996 36.6918 19.0361 40.3463 17.5224C44.0009 16.0086 48.0222 15.6125 51.9018 16.3842C55.7814 17.1559 59.3451 19.0608 62.1421 21.8578C64.9392 24.6549 66.844 28.2185 67.6157 32.0981C68.3874 35.9778 67.9913 39.9991 66.4776 43.6536C64.9638 47.3081 62.4004 50.4317 59.1114 52.6293C55.8224 54.827 51.9556 55.9999 48 55.9999C42.6957 55.9999 37.6086 53.8928 33.8579 50.1421C30.1071 46.3913 28 41.3043 28 35.9999Z" fill="#F5F5F5"/>
<path d="M48 48C54.6274 48 60 42.6274 60 36C60 29.3726 54.6274 24 48 24C41.3726 24 36 29.3726 36 36C36 42.6274 41.3726 48 48 48Z" fill="#F5F5F5"/>
</svg>
