<svg width="39" height="39" viewBox="0 0 39 39" fill="none" xmlns="http://www.w3.org/2000/svg">
<g clip-path="url(#clip0_183_423)">
<path d="M19.5004 0C13.1235 0 7.89751 5.2104 7.89751 11.5697C7.89751 14.0338 8.68453 16.3238 10.0164 18.206L18.0843 32.1535C19.2141 33.6297 19.9653 33.3493 20.9048 32.0756L29.8038 16.9319C29.9832 16.6066 30.1244 16.2603 30.2472 15.9065C30.8117 14.5304 31.1021 13.0572 31.1021 11.5697C31.1025 5.2104 25.8781 0 19.5004 0ZM19.5004 5.421C22.9347 5.421 25.6655 8.14554 25.6655 11.5697C25.6655 14.9939 22.9347 17.7177 19.5004 17.7177C16.0664 17.7177 13.3345 14.9947 13.3345 11.5701C13.3345 8.14554 16.0664 5.42139 19.5 5.42139" fill="#F5F5F5"/>
<path d="M26.8761 19.0742L26.8574 19.1234L26.8737 19.0785L26.8761 19.0742ZM24.9007 28.6082L24.3614 29.2751C25.0907 29.3632 25.7966 29.4665 26.4576 29.5917L24.3208 30.2247L27.1729 30.9833L29.2988 30.3128C30.6045 30.7508 32.4125 31.2863 33.0116 31.8951H28.7489L29.1724 33.1337H33.5958C33.5825 33.8318 32.3345 34.3989 31.1427 34.8583L28.1198 34.2047L25.2716 35.2253L28.3136 35.9195C26.5376 36.4031 23.5556 36.6971 21.0869 36.8325L20.9832 35.4129H18.0168L17.9127 36.8325C15.444 36.6971 12.4625 36.4035 10.686 35.9199L13.7284 35.2253L10.8802 34.2047L7.85695 34.8583C6.68227 34.5014 5.4175 33.8318 5.40424 33.1337H9.82801L10.2515 31.8951H5.98885C6.58789 31.2863 8.39593 30.7508 9.70165 30.3128L11.8275 30.9833L14.6796 30.2247L12.5428 29.5917C13.2329 29.4643 13.9269 29.3593 14.6238 29.277L14.0923 28.6089C8.32612 29.2084 3.5338 30.4848 2.27722 32.5007C0.273007 35.7136 7.66663 38.9455 19.2543 38.9958C19.4267 39.0044 19.5967 38.9981 19.7574 38.9958C31.3385 38.9428 38.7254 35.712 36.7228 32.5007C35.4654 30.4841 30.6704 29.2072 24.9007 28.6082Z" fill="#F5F5F5"/>
</g>
<defs>
<clipPath id="clip0_183_423">
<rect width="39" height="39" fill="white"/>
</clipPath>
</defs>
</svg>
