<svg width="66" height="49" viewBox="0 0 66 49" fill="none" xmlns="http://www.w3.org/2000/svg">
<path d="M11 41C11 42.7681 11.7024 44.4638 12.9526 45.714C14.2029 46.9643 15.8986 47.6667 17.6667 47.6667C19.4348 47.6667 21.1305 46.9643 22.3807 45.714C23.631 44.4638 24.3333 42.7681 24.3333 41C24.3333 39.2319 23.631 37.5362 22.3807 36.286C21.1305 35.0357 19.4348 34.3333 17.6667 34.3333C15.8986 34.3333 14.2029 35.0357 12.9526 36.286C11.7024 37.5362 11 39.2319 11 41ZM44.3333 41C44.3333 42.7681 45.0357 44.4638 46.286 45.714C47.5362 46.9643 49.2319 47.6667 51 47.6667C52.7681 47.6667 54.4638 46.9643 55.714 45.714C56.9643 44.4638 57.6667 42.7681 57.6667 41C57.6667 39.2319 56.9643 37.5362 55.714 36.286C54.4638 35.0357 52.7681 34.3333 51 34.3333C49.2319 34.3333 47.5362 35.0357 46.286 36.286C45.0357 37.5362 44.3333 39.2319 44.3333 41Z" stroke="black" stroke-width="2" stroke-linecap="round" stroke-linejoin="round"/>
<path d="M11 41H4.33333V27.6667M1 1H37.6667V41M24.3333 41H44.3333M57.6667 41H64.3333V21M64.3333 21H37.6667M64.3333 21L54.3333 4.33333H37.6667M4.33333 14.3333H17.6667" stroke="black" stroke-width="2" stroke-linecap="round" stroke-linejoin="round"/>
</svg>
