<svg width="70" height="70" viewBox="0 0 70 70" fill="none" xmlns="http://www.w3.org/2000/svg">
<path d="M29.4002 5.83333C15.9543 8.56333 5.8335 20.4517 5.8335 34.7054C5.8335 50.9775 19.0227 64.1667 35.2947 64.1667C49.5485 64.1667 61.4368 54.0458 64.1668 40.6" stroke="black" stroke-width="1.5" stroke-linecap="round"/>
<path d="M55.2358 52.5C56.3204 52.2711 57.3645 51.8808 58.3333 51.3421M42.84 50.5779C44.5803 51.3362 46.2496 51.9001 47.8479 52.2696M31.6604 43.5983C32.865 44.4442 34.1542 45.4592 35.4083 46.3342M8.75 40.3258C9.68917 39.8679 10.7042 39.34 11.8504 38.8879M18.8125 37.9167C20.4517 38.0975 22.2892 38.5671 24.3717 39.4421" stroke="black" stroke-width="1.5" stroke-linecap="round" stroke-linejoin="round"/>
<path d="M53.9585 20.4167C53.9585 19.2563 53.4976 18.1435 52.6771 17.3231C51.8566 16.5026 50.7438 16.0417 49.5835 16.0417C48.4232 16.0417 47.3104 16.5026 46.4899 17.3231C45.6694 18.1435 45.2085 19.2563 45.2085 20.4167C45.2085 21.577 45.6694 22.6898 46.4899 23.5103C47.3104 24.3307 48.4232 24.7917 49.5835 24.7917C50.7438 24.7917 51.8566 24.3307 52.6771 23.5103C53.4976 22.6898 53.9585 21.577 53.9585 20.4167Z" stroke="black" stroke-width="1.5"/>
<path d="M49.5833 5.83333C57.4758 5.83333 64.1667 12.3025 64.1667 20.1542C64.1667 28.1254 57.3679 33.7225 51.0854 37.5258C50.626 37.7812 50.109 37.9152 49.5833 37.9152C49.0577 37.9152 48.5407 37.7812 48.0813 37.5258C41.8104 33.6875 35 28.1546 35 20.1542C35 12.3083 41.6908 5.83333 49.5833 5.83333Z" stroke="black" stroke-width="1.5"/>
</svg>
