<svg width="79" height="79" viewBox="0 0 79 79" fill="none" xmlns="http://www.w3.org/2000/svg">
<path d="M56.7912 65.5601C62.8946 61.5167 67.3858 55.4599 69.4821 48.4452C71.5785 41.4305 71.1472 33.9026 68.2633 27.1733C65.3794 20.4439 60.2258 14.9398 53.7005 11.62C47.1752 8.30012 39.6919 7.37507 32.5546 9.006M56.7944 55.9583V65.5568L67.4792 65.5601M22.1266 13.4958C16.0408 17.5532 11.5698 23.6154 9.49134 30.6282C7.41284 37.6409 7.85833 45.1604 10.7503 51.8787C13.6423 58.5969 18.7979 64.0889 25.3201 67.3992C31.8424 70.7096 39.3188 71.6289 46.4487 69.9973M22.1266 13.4958V23.0417M22.1266 13.4958H11.5209" stroke="black" stroke-width="1.5" stroke-linecap="round" stroke-linejoin="round"/>
<path d="M41.1458 23.0417L29.625 39.5H49.375L37.8542 55.9583" stroke="black" stroke-width="1.5" stroke-linecap="round" stroke-linejoin="round"/>
</svg>
