<svg width="70" height="70" viewBox="0 0 70 70" fill="none" xmlns="http://www.w3.org/2000/svg">
<path d="M62.7084 35C62.7084 35.9576 62.5198 36.9057 62.1534 37.7904C61.7869 38.6751 61.2498 39.4789 60.5727 40.156C59.8956 40.8331 59.0918 41.3702 58.2072 41.7366C57.3225 42.1031 56.3743 42.2917 55.4167 42.2917C54.4592 42.2917 53.511 42.1031 52.6263 41.7366C51.7417 41.3702 50.9379 40.8331 50.2608 40.156C49.5837 39.4789 49.0466 38.6751 48.6801 37.7904C48.3137 36.9057 48.1251 35.9576 48.1251 35C48.1251 33.0661 48.8933 31.2115 50.2608 29.844C51.6282 28.4766 53.4829 27.7083 55.4167 27.7083C57.3506 27.7083 59.2053 28.4766 60.5727 29.844C61.9402 31.2115 62.7084 33.0661 62.7084 35ZM39.3751 11.6667C39.3751 12.827 38.9141 13.9398 38.0937 14.7603C37.2732 15.5807 36.1604 16.0417 35.0001 16.0417C33.8398 16.0417 32.727 15.5807 31.9065 14.7603C31.086 13.9398 30.6251 12.827 30.6251 11.6667C30.6251 10.5063 31.086 9.39355 31.9065 8.57307C32.727 7.7526 33.8398 7.29167 35.0001 7.29167C36.1604 7.29167 37.2732 7.7526 38.0937 8.57307C38.9141 9.39355 39.3751 10.5063 39.3751 11.6667ZM36.4584 33.5417C36.4584 34.1162 36.3453 34.6851 36.1254 35.2159C35.9055 35.7467 35.5833 36.229 35.177 36.6353C34.7708 37.0415 34.2885 37.3638 33.7577 37.5836C33.2269 37.8035 32.6579 37.9167 32.0834 37.9167C31.5089 37.9167 30.94 37.8035 30.4092 37.5836C29.8784 37.3638 29.3961 37.0415 28.9898 36.6353C28.5836 36.229 28.2613 35.7467 28.0414 35.2159C27.8216 34.6851 27.7084 34.1162 27.7084 33.5417C27.7084 32.3813 28.1694 31.2685 28.9898 30.4481C29.8103 29.6276 30.9231 29.1667 32.0834 29.1667C33.2437 29.1667 34.3565 29.6276 35.177 30.4481C35.9975 31.2685 36.4584 32.3813 36.4584 33.5417ZM18.9584 21.875C18.9584 23.4221 18.3438 24.9058 17.2499 25.9998C16.1559 27.0938 14.6722 27.7083 13.1251 27.7083C11.578 27.7083 10.0943 27.0938 9.00029 25.9998C7.90633 24.9058 7.29175 23.4221 7.29175 21.875C7.29175 20.3279 7.90633 18.8442 9.00029 17.7502C10.0943 16.6562 11.578 16.0417 13.1251 16.0417C14.6722 16.0417 16.1559 16.6562 17.2499 17.7502C18.3438 18.8442 18.9584 20.3279 18.9584 21.875ZM30.6251 56.875C30.6251 58.4221 30.0105 59.9058 28.9165 60.9998C27.8226 62.0938 26.3388 62.7083 24.7917 62.7083C23.2447 62.7083 21.7609 62.0938 20.667 60.9998C19.573 59.9058 18.9584 58.4221 18.9584 56.875C18.9584 55.3279 19.573 53.8442 20.667 52.7502C21.7609 51.6562 23.2447 51.0417 24.7917 51.0417C26.3388 51.0417 27.8226 51.6562 28.9165 52.7502C30.0105 53.8442 30.6251 55.3279 30.6251 56.875Z" stroke="black" stroke-width="1.5"/>
<path d="M39.3752 14.5833L51.0418 29.1667M42.2918 45.2083L30.6252 53.9583M23.3335 51.0417L14.5835 27.7083M18.4131 19.4075L30.6252 13.125M36.4585 33.5417L48.1397 34.545M35.0002 16.0417L32.0835 29.1667" stroke="black" stroke-width="1.5" stroke-linecap="round" stroke-linejoin="round"/>
</svg>
