<svg width="30" height="30" viewBox="0 0 30 30" fill="none" xmlns="http://www.w3.org/2000/svg">
<path d="M25.215 8.43756H22.8888L17.1813 14.1426C17.3778 14.6435 17.3959 15.1969 17.2324 15.7097C17.069 16.2224 16.734 16.6633 16.2837 16.958C15.8334 17.2528 15.2954 17.3836 14.7601 17.3283C14.2247 17.273 13.7248 17.0351 13.3442 16.6546C12.9637 16.274 12.7258 15.7741 12.6705 15.2387C12.6152 14.7034 12.746 14.1654 13.0408 13.7151C13.3355 13.2649 13.7764 12.9298 14.2891 12.7664C14.8019 12.6029 15.3553 12.621 15.8563 12.8176L21.5625 7.11131V4.78506C21.5626 4.47378 21.6862 4.17527 21.9062 3.95506L24.0687 1.79256C24.1088 1.75228 24.159 1.72367 24.2141 1.70979C24.2691 1.69592 24.3269 1.6973 24.3812 1.71381C24.4925 1.74631 24.575 1.83881 24.5975 1.95256L25.1725 4.82881L28.0475 5.40381C28.16 5.42631 28.2525 5.50881 28.285 5.62006C28.3014 5.6741 28.3029 5.73158 28.2892 5.78638C28.2756 5.84119 28.2473 5.89127 28.2075 5.93131L26.0437 8.09381C25.8238 8.3135 25.5258 8.43711 25.215 8.43756Z" fill="black"/>
<path d="M3.28125 15C3.28125 18.108 4.5159 21.0887 6.71359 23.2864C8.91128 25.4841 11.892 26.7188 15 26.7188C16.5389 26.7188 18.0628 26.4156 19.4846 25.8267C20.9064 25.2378 22.1982 24.3746 23.2864 23.2864C24.3746 22.1982 25.2378 20.9064 25.8267 19.4846C26.4156 18.0628 26.7188 16.5389 26.7188 15C26.7188 13.8775 26.5613 12.7925 26.2675 11.7663C26.2091 11.5306 26.2444 11.2815 26.3659 11.0714C26.4875 10.8612 26.6858 10.7064 26.9192 10.6395C27.1526 10.5727 27.4028 10.5989 27.6172 10.7128C27.8316 10.8266 27.9935 11.0192 28.0688 11.25C28.4112 12.4425 28.5938 13.7 28.5938 15C28.5938 22.5075 22.5075 28.5938 15 28.5938C7.4925 28.5938 1.40625 22.5075 1.40625 15C1.40625 7.49251 7.4925 1.40626 15 1.40626C16.2688 1.40501 17.53 1.58126 18.75 1.93001C18.869 1.96337 18.9801 2.01992 19.0772 2.09641C19.1742 2.17289 19.2551 2.26779 19.3154 2.37567C19.3756 2.48354 19.4139 2.60225 19.4281 2.72498C19.4423 2.8477 19.4321 2.97202 19.3981 3.09079C19.364 3.20956 19.3069 3.32044 19.2299 3.41704C19.1529 3.51365 19.0575 3.59408 18.9493 3.65372C18.8411 3.71335 18.7222 3.75101 18.5994 3.76453C18.4766 3.77805 18.3523 3.76717 18.2337 3.73251C17.1821 3.43233 16.0937 3.28044 15 3.28126C11.892 3.28126 8.91128 4.51591 6.71359 6.7136C4.5159 8.91129 3.28125 11.892 3.28125 15Z" fill="black"/>
<path d="M8.90625 15C8.90974 15.8279 9.08193 16.6464 9.41231 17.4055C9.74269 18.1647 10.2243 18.8485 10.8278 19.4153C11.4313 19.9821 12.144 20.4199 12.9223 20.7021C13.7007 20.9842 14.5283 21.1048 15.3548 21.0564C16.1813 21.008 16.9893 20.7917 17.7294 20.4206C18.4695 20.0495 19.1262 19.5315 19.6594 18.8981C20.1926 18.2648 20.5911 17.5294 20.8307 16.7369C21.0702 15.9444 21.1457 15.1114 21.0525 14.2887C21.0263 14.1221 21.0456 13.9515 21.1084 13.795C21.1712 13.6385 21.2752 13.5018 21.4093 13.3996C21.5435 13.2974 21.7028 13.2333 21.8704 13.2142C22.0379 13.1951 22.2076 13.2218 22.3612 13.2912C22.675 13.4312 22.8862 13.73 22.9137 14.0725C23.1078 15.7165 22.7849 17.3802 21.9899 18.8323C21.1948 20.2843 19.9671 21.4527 18.4775 22.1748C16.9878 22.8969 15.3102 23.1371 13.6777 22.8618C12.0453 22.5865 10.5392 21.8095 9.36875 20.6387C8.19862 19.4693 7.42141 17.9647 7.14491 16.3336C6.86841 14.7025 7.10632 13.0258 7.82565 11.536C8.54499 10.0463 9.71009 8.81725 11.1594 8.01946C12.6086 7.22168 14.2702 6.89465 15.9138 7.08373C16.038 7.09526 16.1587 7.13147 16.2688 7.19025C16.3788 7.24903 16.476 7.32919 16.5547 7.42603C16.6334 7.52287 16.692 7.63444 16.727 7.75421C16.762 7.87397 16.7727 7.99952 16.7586 8.1235C16.7444 8.24747 16.7057 8.36737 16.6446 8.47618C16.5835 8.58498 16.5013 8.68049 16.4029 8.75712C16.3044 8.83375 16.1916 8.88994 16.0711 8.92242C15.9506 8.95489 15.8249 8.96299 15.7013 8.94623C14.8475 8.84753 13.9826 8.93049 13.1632 9.18965C12.3438 9.44882 11.5885 9.87834 10.9468 10.45C10.3051 11.0217 9.7916 11.7226 9.43993 12.5068C9.08825 13.2909 8.90638 14.1406 8.90625 15Z" fill="black"/>
</svg>
