<svg width="56" height="48" viewBox="0 0 56 48" fill="none" xmlns="http://www.w3.org/2000/svg">
<path d="M24.75 23.7188C24.75 23.9923 24.6414 24.2546 24.448 24.448C24.2546 24.6414 23.9923 24.75 23.7188 24.75H11.3438C11.0702 24.75 10.8079 24.6414 10.6145 24.448C10.4211 24.2546 10.3125 23.9923 10.3125 23.7188C10.3125 23.4452 10.4211 23.1829 10.6145 22.9895C10.8079 22.7961 11.0702 22.6875 11.3438 22.6875H23.7188C23.9923 22.6875 24.2546 22.7961 24.448 22.9895C24.6414 23.1829 24.75 23.4452 24.75 23.7188ZM23.7188 14.4375H11.3438C11.0702 14.4375 10.8079 14.5461 10.6145 14.7395C10.4211 14.9329 10.3125 15.1952 10.3125 15.4688C10.3125 15.7423 10.4211 16.0046 10.6145 16.198C10.8079 16.3914 11.0702 16.5 11.3438 16.5H23.7188C23.9923 16.5 24.2546 16.3914 24.448 16.198C24.6414 16.0046 24.75 15.7423 24.75 15.4688C24.75 15.1952 24.6414 14.9329 24.448 14.7395C24.2546 14.5461 23.9923 14.4375 23.7188 14.4375ZM51.5625 29.8392V46.4062C51.5628 46.5874 51.5153 46.7654 51.4249 46.9224C51.3345 47.0794 51.2043 47.2098 51.0475 47.3005C50.8907 47.3912 50.7128 47.439 50.5316 47.439C50.3505 47.4391 50.1725 47.3914 50.0156 47.3009L43.3125 43.4698L36.6094 47.3009C36.4525 47.3914 36.2745 47.4391 36.0934 47.439C35.9122 47.439 35.7343 47.3912 35.5775 47.3005C35.4207 47.2098 35.2905 47.0794 35.2001 46.9224C35.1097 46.7654 35.0622 46.5874 35.0625 46.4062V39.1875H3.09375C2.27324 39.1875 1.48633 38.8615 0.906138 38.2814C0.325948 37.7012 0 36.9143 0 36.0938V3.09375C0 2.27324 0.325948 1.48633 0.906138 0.906138C1.48633 0.325947 2.27324 0 3.09375 0H48.4688C49.2893 0 50.0762 0.325947 50.6564 0.906138C51.2365 1.48633 51.5625 2.27324 51.5625 3.09375V11.4108C52.86 12.5697 53.8981 13.9895 54.6089 15.5774C55.3197 17.1652 55.6871 18.8853 55.6871 20.625C55.6871 22.3647 55.3197 24.0848 54.6089 25.6726C53.8981 27.2605 52.86 28.6803 51.5625 29.8392ZM43.3125 10.3125C41.2729 10.3125 39.2791 10.9173 37.5832 12.0505C35.8873 13.1836 34.5655 14.7942 33.785 16.6786C33.0045 18.5629 32.8002 20.6364 33.1982 22.6369C33.5961 24.6373 34.5782 26.4748 36.0205 27.917C37.4627 29.3593 39.3002 30.3414 41.3006 30.7393C43.3011 31.1373 45.3746 30.933 47.2589 30.1525C49.1433 29.372 50.7539 28.0502 51.887 26.3543C53.0202 24.6584 53.625 22.6646 53.625 20.625C53.625 17.89 52.5385 15.2669 50.6045 13.333C48.6706 11.399 46.0475 10.3125 43.3125 10.3125ZM35.0625 37.125V29.8392C32.8006 27.7927 31.3742 24.9829 31.0571 21.9491C30.74 18.9154 31.5545 15.8713 33.3444 13.4013C35.1342 10.9313 37.7733 9.20942 40.755 8.56607C43.7367 7.92271 46.8509 8.40326 49.5 9.91547V3.09375C49.5 2.82025 49.3913 2.55794 49.198 2.36455C49.0046 2.17115 48.7423 2.0625 48.4688 2.0625H3.09375C2.82025 2.0625 2.55794 2.17115 2.36455 2.36455C2.17115 2.55794 2.0625 2.82025 2.0625 3.09375V36.0938C2.0625 36.3673 2.17115 36.6296 2.36455 36.823C2.55794 37.0163 2.82025 37.125 3.09375 37.125H35.0625ZM49.5 31.3345C47.6204 32.4255 45.4858 33.0001 43.3125 33.0001C41.1392 33.0001 39.0046 32.4255 37.125 31.3345V44.6299L42.7969 41.3866C42.9536 41.2961 43.1315 41.2485 43.3125 41.2485C43.4935 41.2485 43.6714 41.2961 43.8281 41.3866L49.5 44.6299V31.3345Z" fill="black"/>
</svg>
