<svg width="80" height="80" viewBox="0 0 80 80" fill="none" xmlns="http://www.w3.org/2000/svg">
<path d="M16.6667 56.6667C16.6667 58.4348 17.3691 60.1305 18.6194 61.3807C19.8696 62.631 21.5653 63.3333 23.3334 63.3333C25.1015 63.3333 26.7972 62.631 28.0475 61.3807C29.2977 60.1305 30.0001 58.4348 30.0001 56.6667C30.0001 54.8986 29.2977 53.2029 28.0475 51.9526C26.7972 50.7024 25.1015 50 23.3334 50C21.5653 50 19.8696 50.7024 18.6194 51.9526C17.3691 53.2029 16.6667 54.8986 16.6667 56.6667ZM50.0001 56.6667C50.0001 58.4348 50.7025 60.1305 51.9527 61.3807C53.2029 62.631 54.8986 63.3333 56.6667 63.3333C58.4349 63.3333 60.1306 62.631 61.3808 61.3807C62.631 60.1305 63.3334 58.4348 63.3334 56.6667C63.3334 54.8986 62.631 53.2029 61.3808 51.9526C60.1306 50.7024 58.4349 50 56.6667 50C54.8986 50 53.2029 50.7024 51.9527 51.9526C50.7025 53.2029 50.0001 54.8986 50.0001 56.6667Z" stroke="black" stroke-width="2" stroke-linecap="round" stroke-linejoin="round"/>
<path d="M16.6667 56.6667H10.0001V43.3333M6.66675 16.6667H43.3334V56.6667M30.0001 56.6667H50.0001M63.3334 56.6667H70.0001V36.6667M70.0001 36.6667H43.3334M70.0001 36.6667L60.0001 20H43.3334M10.0001 30H23.3334" stroke="black" stroke-width="2" stroke-linecap="round" stroke-linejoin="round"/>
</svg>
