<svg width="253" height="184" viewBox="0 0 253 184" fill="none" xmlns="http://www.w3.org/2000/svg">
<path d="M195.5 166.75C205.045 166.75 212.75 159.045 212.75 149.5C212.75 139.955 205.045 132.25 195.5 132.25C185.955 132.25 178.25 139.955 178.25 149.5C178.25 159.045 185.955 166.75 195.5 166.75ZM212.75 63.25H184V92H235.29L212.75 63.25ZM57.5 166.75C67.045 166.75 74.75 159.045 74.75 149.5C74.75 139.955 67.045 132.25 57.5 132.25C47.955 132.25 40.25 139.955 40.25 149.5C40.25 159.045 47.955 166.75 57.5 166.75ZM218.5 46L253 92V149.5H230C230 168.59 214.59 184 195.5 184C176.41 184 161 168.59 161 149.5H92C92 168.59 76.59 184 57.5 184C38.41 184 23 168.59 23 149.5H0V23C0 10.235 10.235 0 23 0H184V46H218.5ZM23 23V126.5H31.74C38.065 119.485 47.265 115 57.5 115C67.735 115 76.935 119.485 83.26 126.5H161V23H23ZM103.5 34.5L143.75 74.75L103.5 115V86.25H46V63.25H103.5V34.5Z" fill="black"/>
</svg>
