<svg width="32" height="32" viewBox="0 0 32 32" fill="none" xmlns="http://www.w3.org/2000/svg">
<path d="M29.75 21.875C27.65 21.875 25.375 21.525 23.45 20.825H22.925C22.4 20.825 22.05 21 21.7 21.35L17.85 25.2C12.95 22.575 8.75 18.55 6.3 13.65L10.15 9.8C10.675 9.275 10.85 8.575 10.5 8.05C9.975 6.125 9.625 3.85 9.625 1.75C9.625 0.875 8.75 0 7.875 0H1.75C0.875 0 0 0.875 0 1.75C0 18.2 13.3 31.5 29.75 31.5C30.625 31.5 31.5 30.625 31.5 29.75V23.625C31.5 22.75 30.625 21.875 29.75 21.875ZM3.5 3.5H6.125C6.3 5.075 6.65 6.65 7 8.05L4.9 10.15C4.2 8.05 3.675 5.775 3.5 3.5ZM28 28C25.725 27.825 23.45 27.3 21.35 26.6L23.45 24.5C24.85 24.85 26.425 25.2 28 25.2V28Z" fill="#EC1A25"/>
</svg>
