<svg width="26" height="27" viewBox="0 0 26 27" fill="none" xmlns="http://www.w3.org/2000/svg">
<path fill-rule="evenodd" clip-rule="evenodd" d="M13 26.9749C14.7072 26.9749 16.3977 26.626 17.9749 25.9482C19.5521 25.2704 20.9852 24.2769 22.1924 23.0245C23.3995 21.7721 24.3571 20.2852 25.0104 18.6489C25.6637 17.0125 26 15.2586 26 13.4874C26 11.7162 25.6637 9.9624 25.0104 8.32602C24.3571 6.68965 23.3995 5.20281 22.1924 3.95038C20.9852 2.69796 19.5521 1.70448 17.9749 1.02667C16.3977 0.348863 14.7072 -2.63929e-08 13 0C9.55219 5.33028e-08 6.24558 1.42099 3.80761 3.95038C1.36964 6.47977 0 9.91035 0 13.4874C0 17.0645 1.36964 20.4951 3.80761 23.0245C6.24558 25.5539 9.55219 26.9749 13 26.9749ZM12.6649 18.9424L19.8871 9.95074L17.6684 8.03252L11.4573 15.7638L8.24344 12.4279L6.201 14.547L10.5343 19.0428L11.6523 20.2027L12.6649 18.9424Z" fill="#EC1A25"/>
</svg>
