<svg width="73" height="62" viewBox="0 0 73 62" fill="none" xmlns="http://www.w3.org/2000/svg">
<path d="M32.25 30.9062C32.25 31.2626 32.1084 31.6044 31.8564 31.8564C31.6044 32.1084 31.2626 32.25 30.9062 32.25H14.7812C14.4249 32.25 14.0831 32.1084 13.8311 31.8564C13.5791 31.6044 13.4375 31.2626 13.4375 30.9062C13.4375 30.5499 13.5791 30.2081 13.8311 29.9561C14.0831 29.7041 14.4249 29.5625 14.7812 29.5625H30.9062C31.2626 29.5625 31.6044 29.7041 31.8564 29.9561C32.1084 30.2081 32.25 30.5499 32.25 30.9062ZM30.9062 18.8125H14.7812C14.4249 18.8125 14.0831 18.9541 13.8311 19.2061C13.5791 19.4581 13.4375 19.7999 13.4375 20.1562C13.4375 20.5126 13.5791 20.8544 13.8311 21.1064C14.0831 21.3584 14.4249 21.5 14.7812 21.5H30.9062C31.2626 21.5 31.6044 21.3584 31.8564 21.1064C32.1084 20.8544 32.25 20.5126 32.25 20.1562C32.25 19.7999 32.1084 19.4581 31.8564 19.2061C31.6044 18.9541 31.2626 18.8125 30.9062 18.8125ZM67.1875 38.8814V60.4688C67.1879 60.7048 67.126 60.9368 67.0082 61.1413C66.8904 61.3459 66.7208 61.5158 66.5165 61.634C66.3121 61.7521 66.0803 61.8144 65.8442 61.8145C65.6082 61.8146 65.3763 61.7525 65.1719 61.6345L56.4375 56.6424L47.7031 61.6345C47.4987 61.7525 47.2668 61.8146 47.0308 61.8145C46.7947 61.8144 46.5628 61.7521 46.3585 61.634C46.1542 61.5158 45.9846 61.3459 45.8668 61.1413C45.749 60.9368 45.6872 60.7048 45.6875 60.4688V51.0625H4.03125C2.9621 51.0625 1.93673 50.6378 1.18073 49.8818C0.42472 49.1258 0 48.1004 0 47.0312V4.03125C0 2.9621 0.42472 1.93673 1.18073 1.18073C1.93673 0.424719 2.9621 0 4.03125 0H63.1562C64.2254 0 65.2508 0.424719 66.0068 1.18073C66.7628 1.93673 67.1875 2.9621 67.1875 4.03125V14.8686C68.8782 16.3786 70.2309 18.2287 71.1571 20.2978C72.0833 22.3668 72.562 24.6081 72.562 26.875C72.562 29.1419 72.0833 31.3832 71.1571 33.4522C70.2309 35.5213 68.8782 37.3714 67.1875 38.8814ZM56.4375 13.4375C53.7798 13.4375 51.1818 14.2256 48.972 15.7021C46.7622 17.1787 45.0399 19.2773 44.0229 21.7327C43.0058 24.1881 42.7397 26.8899 43.2582 29.4965C43.7767 32.1031 45.0565 34.4975 46.9358 36.3767C48.815 38.256 51.2094 39.5358 53.816 40.0543C56.4226 40.5728 59.1244 40.3067 61.5798 39.2896C64.0352 38.2726 66.1338 36.5503 67.6104 34.3405C69.0869 32.1307 69.875 29.5327 69.875 26.875C69.875 23.3112 68.4593 19.8933 65.9392 17.3733C63.4192 14.8532 60.0013 13.4375 56.4375 13.4375ZM45.6875 48.375V38.8814C42.7401 36.2148 40.8815 32.5535 40.4683 28.6004C40.0551 24.6473 41.1165 20.6808 43.4487 17.4624C45.7809 14.2439 49.2197 12.0002 53.1049 11.1618C56.9902 10.3235 61.0482 10.9497 64.5 12.9202V4.03125C64.5 3.67487 64.3584 3.33308 64.1064 3.08108C63.8544 2.82907 63.5126 2.6875 63.1562 2.6875H4.03125C3.67487 2.6875 3.33308 2.82907 3.08108 3.08108C2.82907 3.33308 2.6875 3.67487 2.6875 4.03125V47.0312C2.6875 47.3876 2.82907 47.7294 3.08108 47.9814C3.33308 48.2334 3.67487 48.375 4.03125 48.375H45.6875ZM64.5 40.8298C62.0508 42.2514 59.2693 43.0001 56.4375 43.0001C53.6057 43.0001 50.8242 42.2514 48.375 40.8298V58.1541L55.7656 53.928C55.9699 53.8101 56.2016 53.748 56.4375 53.748C56.6734 53.748 56.9051 53.8101 57.1094 53.928L64.5 58.1541V40.8298Z" fill="black"/>
</svg>
