<svg width="230" height="213" viewBox="0 0 230 213" fill="none" xmlns="http://www.w3.org/2000/svg">
<path d="M225.402 33.9781C224.157 33.2595 222.745 32.8812 221.308 32.8812C219.871 32.8812 218.459 33.2595 217.214 33.9781L147.375 68.6113V40.9375C147.371 39.5418 147.01 38.1704 146.326 36.9535C145.643 35.7365 144.66 34.7145 143.471 33.9844C142.281 33.2543 140.925 32.8404 139.53 32.782C138.136 32.7235 136.75 33.0226 135.503 33.6506L65.5 68.6113V8.1875C65.5 6.01604 64.6374 3.93352 63.1019 2.39806C61.5665 0.862609 59.484 0 57.3125 0H8.1875C6.01604 0 3.93352 0.862609 2.39806 2.39806C0.862609 3.93352 0 6.01604 0 8.1875V212.875H229.25V40.9375C229.253 39.5461 228.901 38.1769 228.228 36.9592C227.554 35.7416 226.582 34.7156 225.402 33.9781ZM163.75 196.5H131V139.188H163.75V196.5ZM212.875 196.5H180.125V131C180.125 128.829 179.262 126.746 177.727 125.211C176.192 123.675 174.109 122.812 171.938 122.812H122.813C120.641 122.812 118.559 123.675 117.023 125.211C115.488 126.746 114.625 128.829 114.625 131V196.5H16.375V16.375H49.125V95.1387L131 54.2012V95.1387L212.875 54.2012V196.5Z" fill="black"/>
</svg>
