<svg width="29" height="29" viewBox="0 0 29 29" fill="none" xmlns="http://www.w3.org/2000/svg">
<path d="M14.1667 25.5C17.1725 25.5 20.0551 24.306 22.1805 22.1805C24.306 20.0551 25.5 17.1725 25.5 14.1667C25.5 11.1609 24.306 8.2782 22.1805 6.15279C20.0551 4.02738 17.1725 2.83333 14.1667 2.83333C11.1609 2.83333 8.2782 4.02738 6.15279 6.15279C4.02738 8.2782 2.83333 11.1609 2.83333 14.1667C2.83333 17.1725 4.02738 20.0551 6.15279 22.1805C8.2782 24.306 11.1609 25.5 14.1667 25.5ZM14.1667 0C16.0271 0 17.8692 0.366432 19.588 1.07837C21.3068 1.79032 22.8685 2.83382 24.184 4.14932C25.4995 5.46482 26.543 7.02654 27.255 8.74532C27.9669 10.4641 28.3333 12.3063 28.3333 14.1667C28.3333 17.9239 26.8408 21.5272 24.184 24.184C21.5272 26.8408 17.9239 28.3333 14.1667 28.3333C6.3325 28.3333 0 21.9583 0 14.1667C0 10.4094 1.49256 6.80609 4.14932 4.14932C6.80609 1.49256 10.4094 0 14.1667 0ZM14.875 7.08333V14.5208L21.25 18.3033L20.1875 20.0458L12.75 15.5833V7.08333H14.875Z" fill="#F5F5F5"/>
</svg>
