<svg width="35" height="23" viewBox="0 0 35 23" fill="none" xmlns="http://www.w3.org/2000/svg">
<path d="M17.374 17.7695C19.152 17.7695 20.6605 17.1471 21.8995 15.9023C23.1385 14.6574 23.7586 13.146 23.7598 11.368C23.7609 9.59 23.1385 8.08092 21.8925 6.84075C20.6465 5.60058 19.1351 4.9805 17.3582 4.9805C15.5814 4.9805 14.0723 5.60292 12.831 6.84775C11.5897 8.09258 10.9696 9.60458 10.9707 11.3837C10.9719 13.1629 11.5943 14.6714 12.838 15.9092C14.0817 17.1471 15.5937 17.7672 17.374 17.7695ZM17.3652 16.1C16.0527 16.1 14.9374 15.6409 14.0192 14.7227C13.1011 13.8046 12.6414 12.6887 12.6403 11.375C12.6391 10.0613 13.0988 8.946 14.0192 8.029C14.9397 7.112 16.0551 6.65233 17.3652 6.65C18.6754 6.64767 19.7913 7.10733 20.713 8.029C21.6347 8.95067 22.0937 10.066 22.0902 11.375C22.0867 12.684 21.6277 13.7999 20.713 14.7227C19.7983 15.6456 18.6824 16.1047 17.3652 16.1ZM17.3705 22.75C13.5788 22.75 10.1243 21.7187 7.007 19.656C3.88967 17.5933 1.554 14.833 0 11.375C1.55167 7.917 3.88558 5.15667 7.00175 3.094C10.1179 1.03133 13.5712 0 17.3617 0C21.1522 0 24.6062 1.03133 27.7235 3.094C30.8408 5.15667 33.1765 7.917 34.7305 11.375C33.1788 14.833 30.8449 17.5933 27.7288 19.656C24.6126 21.7187 21.1592 22.75 17.3687 22.75M17.3652 21C20.6611 21 23.6874 20.1326 26.4442 18.3977C29.2011 16.6629 31.3081 14.322 32.7652 11.375C31.3069 8.42917 29.1993 6.08883 26.4425 4.354C23.6857 2.61917 20.6599 1.75117 17.3652 1.75C14.0706 1.74883 11.0448 2.61683 8.288 4.354C5.53117 6.09117 3.42358 8.4315 1.96525 11.375C3.42358 14.3208 5.53117 16.6617 8.288 18.3977C11.0448 20.1337 14.0706 21.0012 17.3652 21Z" fill="black"/>
</svg>
