<svg width="29" height="29" viewBox="0 0 29 29" fill="none" xmlns="http://www.w3.org/2000/svg">
<path fill-rule="evenodd" clip-rule="evenodd" d="M14.25 28.5C16.1213 28.5 17.9743 28.1314 19.7032 27.4153C21.4321 26.6992 23.003 25.6495 24.3263 24.3263C25.6495 23.003 26.6992 21.4321 27.4153 19.7032C28.1314 17.9743 28.5 16.1213 28.5 14.25C28.5 12.3787 28.1314 10.5257 27.4153 8.79676C26.6992 7.06787 25.6495 5.49696 24.3263 4.17373C23.003 2.85049 21.4321 1.80085 19.7032 1.08472C17.9743 0.368587 16.1213 -2.78851e-08 14.25 0C10.4707 5.63165e-08 6.84612 1.50133 4.17373 4.17373C1.50134 6.84612 0 10.4707 0 14.25C0 18.0293 1.50134 21.6539 4.17373 24.3263C6.84612 26.9987 10.4707 28.5 14.25 28.5ZM13.8827 20.0133L21.7993 10.5133L19.3673 8.48667L12.559 16.6551L9.03608 13.1306L6.79725 15.3694L11.5473 20.1194L12.7728 21.3449L13.8827 20.0133Z" fill="#EC1A25"/>
</svg>
