<svg width="155" height="133" viewBox="0 0 155 133" fill="none" xmlns="http://www.w3.org/2000/svg">
<path d="M55.5833 55.5833H11.9167C9.02139 55.5833 6.24469 54.4332 4.19742 52.3859C2.15015 50.3386 1 47.5619 1 44.6667V11.9167C1 9.02139 2.15015 6.24469 4.19742 4.19742C6.24469 2.15015 9.02139 1 11.9167 1H44.6667C47.5619 1 50.3386 2.15015 52.3859 4.19742C54.4332 6.24469 55.5833 9.02139 55.5833 11.9167V77.4167C55.5833 106.528 41.0278 124.722 11.9167 132M153.833 55.5833H110.167C107.271 55.5833 104.495 54.4332 102.447 52.3859C100.4 50.3386 99.25 47.5619 99.25 44.6667V11.9167C99.25 9.02139 100.4 6.24469 102.447 4.19742C104.495 2.15015 107.271 1 110.167 1H142.917C145.812 1 148.589 2.15015 150.636 4.19742C152.683 6.24469 153.833 9.02139 153.833 11.9167V77.4167C153.833 106.528 139.278 124.722 110.167 132" stroke="#9F9F9F" stroke-width="2" stroke-linecap="round" stroke-linejoin="round"/>
</svg>
