<svg width="70" height="70" viewBox="0 0 70 70" fill="none" xmlns="http://www.w3.org/2000/svg">
<path d="M30.6861 7.65333C31.2328 7.05276 31.8989 6.57295 32.6417 6.24464C33.3845 5.91633 34.1877 5.74675 34.9998 5.74675C35.812 5.74675 36.6152 5.91633 37.358 6.24464C38.1008 6.57295 38.7669 7.05276 39.3136 7.65333L42.2886 10.92C42.8662 11.5541 43.5766 12.0531 44.3691 12.3813C45.1616 12.7095 46.0167 12.8588 46.8736 12.8187L51.2865 12.6146C52.0974 12.5764 52.9074 12.7079 53.6646 13.0006C54.4218 13.2933 55.1095 13.7409 55.6838 14.3147C56.2582 14.8885 56.7064 15.5758 56.9999 16.3327C57.2933 17.0896 57.4256 17.8995 57.3882 18.7104L57.1811 23.1262C57.141 23.9831 57.2904 24.8382 57.6186 25.6307C57.9468 26.4232 58.4457 27.1336 59.0798 27.7112L62.3465 30.6862C62.9471 31.2329 63.4269 31.899 63.7552 32.6418C64.0835 33.3847 64.2531 34.1879 64.2531 35C64.2531 35.8121 64.0835 36.6153 63.7552 37.3581C63.4269 38.101 62.9471 38.7671 62.3465 39.3137L59.0798 42.2887C58.4457 42.8664 57.9468 43.5768 57.6186 44.3693C57.2904 45.1618 57.141 46.0169 57.1811 46.8737L57.3852 51.2867C57.4235 52.0976 57.292 52.9076 56.9992 53.6648C56.7065 54.4219 56.2589 55.1097 55.6851 55.684C55.1114 56.2583 54.424 56.7066 53.6671 57C52.9102 57.2935 52.1004 57.4258 51.2894 57.3883L46.8736 57.1812C46.0167 57.1412 45.1616 57.2905 44.3691 57.6187C43.5766 57.9469 42.8662 58.4459 42.2886 59.08L39.3136 62.3467C38.7669 62.9472 38.1008 63.427 37.358 63.7554C36.6152 64.0837 35.812 64.2532 34.9998 64.2532C34.1877 64.2532 33.3845 64.0837 32.6417 63.7554C31.8989 63.427 31.2328 62.9472 30.6861 62.3467L27.7111 59.08C27.1335 58.4459 26.4231 57.9469 25.6306 57.6187C24.8381 57.2905 23.9829 57.1412 23.1261 57.1812L18.7132 57.3854C17.9022 57.4236 17.0923 57.2921 16.3351 56.9994C15.5779 56.7066 14.8901 56.2591 14.3158 55.6853C13.7415 55.1115 13.2933 54.4242 12.9998 53.6673C12.7063 52.9104 12.5741 52.1005 12.6115 51.2896L12.8186 46.8737C12.8587 46.0169 12.7093 45.1618 12.3811 44.3693C12.0529 43.5768 11.554 42.8664 10.9198 42.2887L7.65317 39.3137C7.05259 38.7671 6.57279 38.101 6.24448 37.3581C5.91617 36.6153 5.74658 35.8121 5.74658 35C5.74658 34.1879 5.91617 33.3847 6.24448 32.6418C6.57279 31.899 7.05259 31.2329 7.65317 30.6862L10.9198 27.7112C11.554 27.1336 12.0529 26.4232 12.3811 25.6307C12.7093 24.8382 12.8587 23.9831 12.8186 23.1262L12.6144 18.7133C12.5762 17.9024 12.7077 17.0924 13.0004 16.3352C13.2932 15.5781 13.7408 14.8903 14.3145 14.316C14.8883 13.7417 15.5756 13.2934 16.3325 13C17.0895 12.7065 17.8993 12.5742 18.7103 12.6117L23.1261 12.8187C23.9829 12.8588 24.8381 12.7095 25.6306 12.3813C26.4231 12.0531 27.1335 11.5541 27.7111 10.92L30.6861 7.65333Z" stroke="black" stroke-width="1.5"/>
<path d="M26.25 35L32.0833 40.8333L43.75 29.1667" stroke="black" stroke-width="1.5" stroke-linecap="round" stroke-linejoin="round"/>
</svg>
